<svg xmlns="http://www.w3.org/2000/svg"  viewBox="0 0 100 100" width="50px" height="50px"><path fill="#ee3e54" d="M13 27A2 2 0 1 0 13 31A2 2 0 1 0 13 27Z"/><path fill="#f1bc19" d="M77 12A1 1 0 1 0 77 14A1 1 0 1 0 77 12Z"/><path fill="#fce0a2" d="M50 13A37 37 0 1 0 50 87A37 37 0 1 0 50 13Z"/><path fill="#f1bc19" d="M83 11A4 4 0 1 0 83 19A4 4 0 1 0 83 11Z"/><path fill="#ee3e54" d="M87 22A2 2 0 1 0 87 26A2 2 0 1 0 87 22Z"/><path fill="#fbcd59" d="M81 74A2 2 0 1 0 81 78 2 2 0 1 0 81 74zM15 59A4 4 0 1 0 15 67 4 4 0 1 0 15 59z"/><path fill="#ee3e54" d="M25 85A2 2 0 1 0 25 89A2 2 0 1 0 25 85Z"/><path fill="#fff" d="M18.5 51A2.5 2.5 0 1 0 18.5 56A2.5 2.5 0 1 0 18.5 51Z"/><path fill="#f1bc19" d="M21 66A1 1 0 1 0 21 68A1 1 0 1 0 21 66Z"/><path fill="#fff" d="M80 33A1 1 0 1 0 80 35A1 1 0 1 0 80 33Z"/><path fill="#a3a3cd" d="M39.195,74.88c-0.007-1.722-0.016-4.878,0.006-6.749c0.017-1.363-0.766-1.897-1.45-2.211 c-0.465-0.214-1.006-0.403-1.578-0.604c-0.808-0.284-1.643-0.578-2.201-0.925c-2.458-1.53-4.125-3.899-5.096-7.243 c-1.067-3.677-1.404-7.662-1.028-12.187c0.166-1.997,0.454-4.093,0.881-6.408c0.799-4.343,3.329-7.428,7.731-9.431 c2.336-1.062,4.92-1.723,8.379-2.141c1.538-0.187,3.139-0.281,4.758-0.281c2.314,0,4.689,0.185,7.261,0.563 c3.212,0.475,6.594,1.193,9.563,3.218c2.24,1.528,3.769,3.694,4.545,6.439c1.258,4.452,1.619,9.397,1.102,15.12 c-0.285,3.153-1.041,5.926-2.31,8.474c-1.127,2.264-2.946,3.889-5.56,4.97c-3.011,1.244-6.305,1.513-9.156,1.666 c-2.428,0.133-4.903,0.225-7.355,0.272c-1.134,0.023-1.528,0.468-1.984,0.982l-0.22,0.245 C44.117,70.127,40.703,73.43,39.195,74.88z"/><path fill="#472b29" d="M49.598,27.4c2.28,0,4.621,0.182,7.158,0.556c3.129,0.462,6.418,1.158,9.271,3.104 c2.13,1.453,3.525,3.432,4.266,6.051c1.235,4.369,1.588,9.231,1.079,14.866c-0.277,3.065-1.009,5.755-2.239,8.226 c-1.049,2.105-2.75,3.621-5.201,4.634c-2.908,1.202-6.133,1.464-8.927,1.615c-2.439,0.132-4.906,0.223-7.332,0.271 c-1.333,0.027-1.896,0.544-2.492,1.217c-0.064,0.072-0.133,0.15-0.212,0.235c-1.066,1.153-3.401,3.438-5.079,5.063 c-0.004-1.678-0.005-3.732,0.012-5.098c0.016-1.341-0.592-2.275-1.858-2.855c-0.495-0.227-1.076-0.432-1.637-0.629 c-0.773-0.271-1.572-0.553-2.064-0.859c-2.305-1.435-3.873-3.673-4.793-6.844c-1.043-3.592-1.371-7.495-1.003-11.933 c0.164-1.972,0.449-4.046,0.872-6.34c0.755-4.101,3.154-7.019,7.333-8.919c2.266-1.031,4.787-1.673,8.174-2.084 C46.434,27.493,48.006,27.4,49.598,27.4 M49.598,26c-1.61,0-3.224,0.09-4.842,0.286c-2.969,0.36-5.851,0.956-8.585,2.199 c-4.335,1.972-7.247,5.142-8.13,9.94c-0.394,2.142-0.71,4.308-0.89,6.478c-0.348,4.196-0.129,8.369,1.053,12.439 c0.919,3.165,2.545,5.866,5.398,7.642c1.03,0.641,2.752,1.064,3.857,1.572c0.701,0.321,1.052,0.716,1.042,1.565 c-0.032,2.693,0,7.969,0,7.969h0.443c0,0,5.25-5.015,7.053-6.966c0.603-0.651,0.742-0.983,1.704-1.003 c2.461-0.049,4.922-0.14,7.379-0.273c3.221-0.174,6.395-0.483,9.386-1.719c2.589-1.07,4.644-2.744,5.919-5.304 c1.37-2.75,2.104-5.668,2.38-8.724c0.469-5.19,0.3-10.33-1.126-15.373c-0.803-2.838-2.372-5.154-4.824-6.827 c-2.976-2.03-6.387-2.82-9.855-3.332C54.514,26.21,52.06,26,49.598,26L49.598,26z"/><path fill="#a3a3cd" d="M36.454,61.988c0.851,0.52,2.273,0.864,3.186,1.276"/><path fill="#472b29" d="M39.64,63.764c-0.068,0-0.139-0.014-0.205-0.044c-0.349-0.157-0.774-0.304-1.212-0.455 c-0.722-0.249-1.468-0.507-2.029-0.85c-0.236-0.145-0.31-0.452-0.166-0.688c0.145-0.235,0.453-0.312,0.688-0.166 c0.468,0.286,1.163,0.526,1.834,0.758c0.469,0.162,0.924,0.32,1.297,0.488c0.252,0.114,0.364,0.41,0.25,0.662 C40.012,63.654,39.831,63.764,39.64,63.764z"/><path fill="#a3a3cd" d="M31.994,55.787c0.422,1.427,1.024,2.738,1.88,3.868"/><path fill="#472b29" d="M33.875,60.155c-0.151,0-0.301-0.068-0.399-0.198c-0.851-1.123-1.493-2.44-1.961-4.028 c-0.078-0.265,0.073-0.543,0.338-0.621c0.266-0.074,0.543,0.073,0.621,0.338c0.434,1.47,1.022,2.683,1.799,3.708 c0.167,0.22,0.124,0.533-0.097,0.7C34.086,60.122,33.98,60.155,33.875,60.155z"/><g><path fill="#a3a3cd" d="M31.124,45.694c-0.213,2.516-0.169,5.022,0.262,7.492"/><path fill="#472b29" d="M31.386,53.687c-0.238,0-0.45-0.171-0.492-0.414c-0.414-2.366-0.501-4.859-0.268-7.62 c0.023-0.274,0.268-0.459,0.54-0.456c0.275,0.023,0.479,0.265,0.456,0.54c-0.226,2.675-0.142,5.083,0.257,7.364 c0.047,0.271-0.135,0.531-0.407,0.578C31.444,53.685,31.415,53.687,31.386,53.687z"/></g><g><path fill="#a3a3cd" d="M68.807,51.536c0.388-4.211,0.248-8.382-0.93-12.474"/><path fill="#472b29" d="M68.807,52.036c-0.015,0-0.031-0.001-0.046-0.002c-0.275-0.025-0.478-0.269-0.452-0.544 c0.428-4.649,0.129-8.67-0.913-12.29c-0.076-0.266,0.077-0.543,0.342-0.619c0.265-0.08,0.543,0.077,0.619,0.342 c1.077,3.742,1.387,7.883,0.948,12.659C69.281,51.842,69.063,52.036,68.807,52.036z"/></g><g><path fill="#a3a3cd" d="M66.84,58.614c0.701-1.384,1.201-2.819,1.534-4.302"/><path fill="#472b29" d="M66.84,59.114c-0.076,0-0.153-0.018-0.226-0.054c-0.246-0.125-0.345-0.426-0.22-0.672 c0.658-1.3,1.16-2.707,1.492-4.186c0.061-0.269,0.329-0.439,0.597-0.379c0.27,0.061,0.439,0.328,0.378,0.598 c-0.35,1.56-0.88,3.046-1.576,4.418C67.198,59.014,67.022,59.114,66.84,59.114z"/></g><g><path fill="#fff" d="M35.818 40.221c.056-2.564 2.021-4.005 4.007-4.442.759-.168 1.43.1 1.994.638 1.558 1.487 2.789 3.21 3.718 5.145.407.848.224 1.599-.468 2.23-.143.131-.293.253-.448.37-1.577 1.187-1.81 2.084-.969 3.869 1.433 3.039 3.807 5.079 6.881 6.345.811.334 1.572.169 2.192-.488.083-.088.177-.172.238-.274 1.212-2.021 2.969-1.821 4.591-.668 1.066.758 2.102 1.556 3.156 2.329 1.606 1.179 1.592 2.288.615 3.884-.713 1.166-1.781 1.973-3.039 2.499-.919.384-1.857.303-2.762-.081-7.601-3.216-13.56-8.285-17.5-15.571-.812-1.501-1.377-3.135-2.024-4.721C35.867 40.96 35.875 40.577 35.818 40.221zM54.454 47.546c-.552 0-1-.447-1-1 0-1.854-1.509-3.363-3.363-3.363-.552 0-1-.447-1-1s.448-1 1-1c2.958 0 5.363 2.406 5.363 5.363C55.454 47.099 55.006 47.546 54.454 47.546z"/><path fill="#fff" d="M58.624,47.637c-0.055,0-0.111-0.005-0.167-0.014c-0.544-0.092-0.912-0.608-0.819-1.152 c0.059-0.353,0.089-0.716,0.089-1.08c0-3.573-2.907-6.48-6.48-6.48c-0.364,0-0.728,0.03-1.081,0.09 c-0.545,0.085-1.061-0.276-1.152-0.82c-0.091-0.545,0.275-1.061,0.82-1.152c0.462-0.078,0.938-0.117,1.413-0.117 c4.676,0,8.48,3.805,8.48,8.48c0,0.476-0.04,0.95-0.118,1.412C59.527,47.291,59.104,47.637,58.624,47.637z"/><path fill="#fff" d="M62.71,47.729c-0.073,0-0.147-0.008-0.222-0.024c-0.539-0.122-0.876-0.657-0.755-1.196 c0.16-0.706,0.241-1.433,0.241-2.16c0-5.354-4.356-9.71-9.71-9.71c-0.727,0-1.454,0.081-2.16,0.24 c-0.54,0.119-1.074-0.217-1.196-0.756c-0.122-0.538,0.217-1.073,0.755-1.195c0.851-0.191,1.726-0.289,2.601-0.289 c6.457,0,11.71,5.253,11.71,11.71c0,0.876-0.098,1.751-0.29,2.602C63.58,47.413,63.167,47.729,62.71,47.729z"/></g><g><path fill="#472b29" d="M50.504,59.285c-0.044,0-0.088-0.012-0.129-0.036c-5.378-3.229-9.608-7.646-12.571-13.124 c-0.615-1.138-1.095-2.362-1.559-3.548c-0.157-0.4-0.314-0.801-0.476-1.198c-0.105-0.256-0.132-0.527-0.159-0.791 c-0.011-0.11-0.022-0.22-0.04-0.327c0.058-2.827,2.208-4.287,4.2-4.727c0.789-0.179,1.557,0.068,2.22,0.702 c1.551,1.479,2.819,3.234,3.771,5.217c0.446,0.93,0.265,1.803-0.525,2.522c-0.148,0.136-0.305,0.263-0.467,0.385 c-1.49,1.121-1.682,1.888-0.893,3.563c0.059,0.125,0.005,0.273-0.12,0.333c-0.124,0.059-0.274,0.006-0.333-0.12 c-0.893-1.895-0.639-2.909,1.044-4.176c0.149-0.111,0.293-0.229,0.43-0.354c0.627-0.572,0.762-1.206,0.411-1.937 c-0.925-1.929-2.158-3.635-3.665-5.072c-0.545-0.52-1.14-0.715-1.768-0.575c-1.807,0.398-3.757,1.712-3.811,4.204 c0.016,0.071,0.028,0.191,0.04,0.312c0.024,0.237,0.046,0.463,0.124,0.651c0.163,0.4,0.321,0.803,0.479,1.205 c0.458,1.171,0.933,2.382,1.533,3.492c2.92,5.398,7.088,9.75,12.389,12.935c0.118,0.07,0.157,0.225,0.085,0.343 C50.671,59.242,50.588,59.285,50.504,59.285z"/></g><g><path fill="#472b29" d="M57.043,62.158c-0.524,0-1.064-0.117-1.617-0.351c-0.776-0.329-1.546-0.682-2.288-1.05 c-0.124-0.061-0.174-0.211-0.113-0.335c0.063-0.124,0.212-0.172,0.335-0.112c0.733,0.363,1.494,0.712,2.262,1.036 c0.909,0.386,1.773,0.411,2.568,0.08c1.296-0.542,2.279-1.349,2.922-2.399c0.981-1.603,0.837-2.532-0.55-3.552 c-0.398-0.292-0.794-0.588-1.189-0.883c-0.651-0.486-1.301-0.973-1.963-1.443c-0.929-0.661-1.811-0.924-2.557-0.773 c-0.65,0.137-1.213,0.596-1.675,1.366c-0.063,0.104-0.144,0.188-0.216,0.261l-0.054,0.056c-0.686,0.727-1.563,0.92-2.469,0.548 c-1.619-0.668-3.025-1.543-4.18-2.601c-0.102-0.094-0.108-0.252-0.015-0.354c0.095-0.102,0.252-0.106,0.353-0.016 c1.111,1.019,2.468,1.862,4.032,2.507c0.721,0.298,1.366,0.152,1.915-0.429l0.061-0.063c0.058-0.059,0.113-0.114,0.145-0.168 c0.536-0.894,1.209-1.432,2.001-1.598c0.884-0.184,1.902,0.111,2.95,0.854c0.665,0.474,1.319,0.962,1.973,1.45 c0.395,0.295,0.789,0.59,1.186,0.882c1.598,1.173,1.795,2.395,0.681,4.216c-0.699,1.142-1.761,2.016-3.157,2.599 C57.95,62.068,57.503,62.158,57.043,62.158z"/></g><g><path fill="#472b29" d="M45.23,50.803c-0.073,0-0.145-0.031-0.194-0.093c-0.326-0.4-0.631-0.829-0.906-1.272 c-0.073-0.117-0.037-0.271,0.081-0.345c0.117-0.07,0.271-0.035,0.344,0.081c0.264,0.426,0.556,0.837,0.869,1.222 c0.087,0.106,0.071,0.264-0.036,0.352C45.342,50.784,45.286,50.803,45.23,50.803z"/></g><g><path fill="#472b29" d="M54.454,47.796c-0.689,0-1.25-0.561-1.25-1.25c0-1.717-1.396-3.113-3.113-3.113 c-0.689,0-1.25-0.561-1.25-1.25s0.561-1.25,1.25-1.25c0.392,0,0.784,0.041,1.165,0.122c0.135,0.028,0.222,0.161,0.193,0.296 c-0.028,0.135-0.163,0.225-0.296,0.192c-0.347-0.073-0.704-0.11-1.062-0.11c-0.414,0-0.75,0.337-0.75,0.75s0.336,0.75,0.75,0.75 c1.992,0,3.613,1.621,3.613,3.613c0,0.413,0.336,0.75,0.75,0.75s0.75-0.337,0.75-0.75c0-1.852-1.007-3.563-2.629-4.468 c-0.121-0.067-0.164-0.22-0.097-0.341c0.068-0.122,0.219-0.165,0.34-0.097c1.78,0.993,2.886,2.873,2.886,4.905 C55.704,47.235,55.143,47.796,54.454,47.796z"/></g><g><path fill="#472b29" d="M53.156,37.377c-0.019,0-0.037-0.002-0.056-0.007c-0.605-0.14-1.229-0.21-1.853-0.21 c-0.138,0-0.25-0.112-0.25-0.25s0.112-0.25,0.25-0.25c0.662,0,1.323,0.075,1.965,0.224c0.135,0.03,0.218,0.165,0.188,0.3 C53.373,37.299,53.27,37.377,53.156,37.377z"/></g><g><path fill="#472b29" d="M58.624,47.887c-0.068,0-0.136-0.006-0.206-0.017c-0.332-0.056-0.62-0.236-0.814-0.509 c-0.193-0.272-0.269-0.604-0.213-0.933c0.057-0.34,0.086-0.689,0.086-1.038c0-3.436-2.795-6.23-6.23-6.23 c-0.35,0-0.7,0.029-1.04,0.086c-0.686,0.113-1.327-0.354-1.44-1.024c-0.114-0.681,0.346-1.326,1.025-1.44 c0.135-0.022,0.265,0.067,0.288,0.204s-0.069,0.266-0.205,0.288c-0.408,0.069-0.684,0.457-0.615,0.865 c0.068,0.402,0.46,0.679,0.867,0.614c0.364-0.062,0.742-0.093,1.12-0.093c3.711,0,6.73,3.02,6.73,6.73 c0,0.377-0.031,0.754-0.093,1.121c-0.034,0.198,0.012,0.396,0.128,0.56c0.116,0.164,0.289,0.271,0.486,0.306 c0.387,0.049,0.795-0.212,0.864-0.615c0.076-0.448,0.114-0.91,0.114-1.371c0-3.265-1.936-6.225-4.933-7.541 c-0.126-0.055-0.184-0.202-0.128-0.329c0.056-0.125,0.204-0.183,0.33-0.128c3.178,1.396,5.231,4.535,5.231,7.998 c0,0.489-0.041,0.979-0.121,1.454C59.754,47.448,59.236,47.887,58.624,47.887z"/></g><g><path fill="#472b29" d="M62.71,47.979c-0.093,0-0.186-0.01-0.276-0.03c-0.672-0.152-1.096-0.823-0.944-1.495 c0.155-0.688,0.234-1.396,0.234-2.105c0-5.216-4.244-9.46-9.46-9.46c-0.708,0-1.416,0.079-2.105,0.234 c-0.675,0.146-1.344-0.277-1.495-0.944c-0.152-0.672,0.271-1.343,0.944-1.495c0.871-0.195,1.764-0.295,2.656-0.295 c0.138,0,0.25,0.112,0.25,0.25s-0.112,0.25-0.25,0.25c-0.855,0-1.711,0.095-2.546,0.283c-0.403,0.091-0.657,0.493-0.566,0.896 c0.091,0.4,0.491,0.648,0.898,0.566c0.724-0.163,1.469-0.246,2.214-0.246c5.492,0,9.96,4.468,9.96,9.96 c0,0.745-0.083,1.491-0.247,2.215c-0.091,0.403,0.163,0.807,0.566,0.897c0.386,0.089,0.808-0.174,0.897-0.566 c0.188-0.833,0.283-1.689,0.283-2.546c0-4.12-2.235-7.945-5.833-9.981c-0.12-0.068-0.163-0.221-0.095-0.341 c0.068-0.122,0.222-0.163,0.341-0.095c3.755,2.126,6.087,6.117,6.087,10.417c0,0.894-0.1,1.787-0.296,2.656 C63.799,47.578,63.297,47.979,62.71,47.979z"/></g><g><path fill="#472b29" d="M56.427,33.652c-0.03,0-0.06-0.005-0.089-0.017c-0.688-0.263-1.405-0.458-2.13-0.583 c-0.136-0.023-0.227-0.152-0.204-0.288c0.023-0.138,0.151-0.235,0.289-0.204c0.756,0.13,1.504,0.334,2.223,0.608 c0.129,0.049,0.194,0.193,0.145,0.322C56.623,33.591,56.528,33.652,56.427,33.652z"/></g></svg>